<mxfile host="app.diagrams.net" modified="2023-09-14T16:29:09.816Z" agent="Mozilla/5.0 (Windows NT 10.0; Win64; x64) AppleWebKit/537.36 (KHTML, like Gecko) Chrome/115.0.0.0 Safari/537.36" etag="42ACsIfgmDhIxJD_3m-n" version="21.7.5" type="google">
  <diagram name="Страница — 1" id="Ukd9luIKzvYEv2qMOUSj">
    <mxGraphModel grid="1" page="1" gridSize="10" guides="1" tooltips="1" connect="1" arrows="1" fold="1" pageScale="1" pageWidth="827" pageHeight="1169" math="0" shadow="0">
      <root>
        <mxCell id="0" />
        <mxCell id="1" parent="0" />
        <mxCell id="Xwmn6Notebn2Lym-PZ0T-15" style="edgeStyle=orthogonalEdgeStyle;rounded=0;orthogonalLoop=1;jettySize=auto;html=1;entryX=0.5;entryY=0;entryDx=0;entryDy=0;" edge="1" parent="1" source="Xwmn6Notebn2Lym-PZ0T-1" target="Xwmn6Notebn2Lym-PZ0T-12">
          <mxGeometry relative="1" as="geometry" />
        </mxCell>
        <mxCell id="Xwmn6Notebn2Lym-PZ0T-16" style="edgeStyle=orthogonalEdgeStyle;rounded=0;orthogonalLoop=1;jettySize=auto;html=1;exitX=1;exitY=1;exitDx=0;exitDy=0;exitPerimeter=0;" edge="1" parent="1" source="Xwmn6Notebn2Lym-PZ0T-1" target="Xwmn6Notebn2Lym-PZ0T-13">
          <mxGeometry relative="1" as="geometry" />
        </mxCell>
        <mxCell id="Xwmn6Notebn2Lym-PZ0T-18" style="edgeStyle=orthogonalEdgeStyle;rounded=0;orthogonalLoop=1;jettySize=auto;html=1;exitX=1;exitY=0.3333333333333333;exitDx=0;exitDy=0;exitPerimeter=0;entryX=0;entryY=0.357;entryDx=0;entryDy=0;entryPerimeter=0;" edge="1" parent="1" source="Xwmn6Notebn2Lym-PZ0T-1" target="Xwmn6Notebn2Lym-PZ0T-10">
          <mxGeometry relative="1" as="geometry" />
        </mxCell>
        <mxCell id="Xwmn6Notebn2Lym-PZ0T-1" value="Туропеатор&lt;br&gt;" style="shape=umlActor;verticalLabelPosition=top;verticalAlign=bottom;html=1;fillColor=#e1d5e7;strokeColor=#9673a6;labelPosition=center;align=center;" vertex="1" parent="1">
          <mxGeometry x="50" y="60" width="30" height="60" as="geometry" />
        </mxCell>
        <mxCell id="Xwmn6Notebn2Lym-PZ0T-25" style="edgeStyle=orthogonalEdgeStyle;rounded=0;orthogonalLoop=1;jettySize=auto;html=1;exitX=0.25;exitY=0.1;exitDx=0;exitDy=0;exitPerimeter=0;entryX=1;entryY=0.5;entryDx=0;entryDy=0;" edge="1" parent="1" source="Xwmn6Notebn2Lym-PZ0T-4" target="Xwmn6Notebn2Lym-PZ0T-21">
          <mxGeometry relative="1" as="geometry" />
        </mxCell>
        <mxCell id="Xwmn6Notebn2Lym-PZ0T-27" style="edgeStyle=orthogonalEdgeStyle;rounded=0;orthogonalLoop=1;jettySize=auto;html=1;exitX=0.75;exitY=0.1;exitDx=0;exitDy=0;exitPerimeter=0;entryX=0;entryY=0.5;entryDx=0;entryDy=0;" edge="1" parent="1" source="Xwmn6Notebn2Lym-PZ0T-4" target="Xwmn6Notebn2Lym-PZ0T-23">
          <mxGeometry relative="1" as="geometry" />
        </mxCell>
        <mxCell id="Xwmn6Notebn2Lym-PZ0T-28" style="edgeStyle=orthogonalEdgeStyle;rounded=0;orthogonalLoop=1;jettySize=auto;html=1;exitX=1;exitY=1;exitDx=0;exitDy=0;exitPerimeter=0;entryX=0;entryY=0.5;entryDx=0;entryDy=0;" edge="1" parent="1" source="Xwmn6Notebn2Lym-PZ0T-4" target="Xwmn6Notebn2Lym-PZ0T-24">
          <mxGeometry relative="1" as="geometry" />
        </mxCell>
        <mxCell id="Xwmn6Notebn2Lym-PZ0T-29" style="edgeStyle=orthogonalEdgeStyle;rounded=0;orthogonalLoop=1;jettySize=auto;html=1;exitX=0;exitY=1;exitDx=0;exitDy=0;exitPerimeter=0;entryX=1;entryY=0.5;entryDx=0;entryDy=0;" edge="1" parent="1" source="Xwmn6Notebn2Lym-PZ0T-4" target="Xwmn6Notebn2Lym-PZ0T-20">
          <mxGeometry relative="1" as="geometry" />
        </mxCell>
        <mxCell id="Xwmn6Notebn2Lym-PZ0T-4" value="Клиент&lt;br&gt;" style="shape=umlActor;verticalLabelPosition=top;verticalAlign=bottom;html=1;fillColor=#f8cecc;strokeColor=#b85450;labelPosition=center;align=center;" vertex="1" parent="1">
          <mxGeometry x="370" y="400" width="30" height="60" as="geometry" />
        </mxCell>
        <mxCell id="Xwmn6Notebn2Lym-PZ0T-35" style="edgeStyle=orthogonalEdgeStyle;rounded=0;orthogonalLoop=1;jettySize=auto;html=1;entryX=1;entryY=0.5;entryDx=0;entryDy=0;" edge="1" parent="1" source="Xwmn6Notebn2Lym-PZ0T-8" target="Xwmn6Notebn2Lym-PZ0T-30">
          <mxGeometry relative="1" as="geometry" />
        </mxCell>
        <mxCell id="Xwmn6Notebn2Lym-PZ0T-36" style="edgeStyle=orthogonalEdgeStyle;rounded=0;orthogonalLoop=1;jettySize=auto;html=1;entryX=0.5;entryY=0;entryDx=0;entryDy=0;" edge="1" parent="1" source="Xwmn6Notebn2Lym-PZ0T-8" target="Xwmn6Notebn2Lym-PZ0T-31">
          <mxGeometry relative="1" as="geometry" />
        </mxCell>
        <mxCell id="Xwmn6Notebn2Lym-PZ0T-8" value="Турагент&lt;br&gt;" style="shape=umlActor;verticalLabelPosition=top;verticalAlign=bottom;html=1;fillColor=#dae8fc;strokeColor=#6c8ebf;labelPosition=center;align=center;" vertex="1" parent="1">
          <mxGeometry x="680" y="60" width="30" height="60" as="geometry" />
        </mxCell>
        <mxCell id="Xwmn6Notebn2Lym-PZ0T-10" value="Формирование&lt;br&gt;тура" style="ellipse;whiteSpace=wrap;html=1;fillColor=#e1d5e7;strokeColor=#9673a6;" vertex="1" parent="1">
          <mxGeometry x="180" y="55" width="140" height="70" as="geometry" />
        </mxCell>
        <mxCell id="Xwmn6Notebn2Lym-PZ0T-12" value="Добавление&lt;br&gt;тура" style="ellipse;whiteSpace=wrap;html=1;fillColor=#e1d5e7;strokeColor=#9673a6;" vertex="1" parent="1">
          <mxGeometry x="-5" y="190" width="140" height="70" as="geometry" />
        </mxCell>
        <mxCell id="Xwmn6Notebn2Lym-PZ0T-13" value="Прогнозирование&lt;br&gt;продаж" style="ellipse;whiteSpace=wrap;html=1;fillColor=#e1d5e7;strokeColor=#9673a6;" vertex="1" parent="1">
          <mxGeometry x="170" y="190" width="140" height="70" as="geometry" />
        </mxCell>
        <mxCell id="Xwmn6Notebn2Lym-PZ0T-20" value="Поиск&lt;br&gt;тура" style="ellipse;whiteSpace=wrap;html=1;fillColor=#f8cecc;strokeColor=#b85450;" vertex="1" parent="1">
          <mxGeometry x="170" y="440" width="140" height="70" as="geometry" />
        </mxCell>
        <mxCell id="Xwmn6Notebn2Lym-PZ0T-21" value="Просмотр&lt;br&gt;&amp;nbsp;информации&lt;br&gt;о туре" style="ellipse;whiteSpace=wrap;html=1;fillColor=#f8cecc;strokeColor=#b85450;" vertex="1" parent="1">
          <mxGeometry x="170" y="320" width="140" height="70" as="geometry" />
        </mxCell>
        <mxCell id="Xwmn6Notebn2Lym-PZ0T-23" value="Бронирование&lt;br&gt;тура" style="ellipse;whiteSpace=wrap;html=1;fillColor=#f8cecc;strokeColor=#b85450;" vertex="1" parent="1">
          <mxGeometry x="450" y="320" width="140" height="70" as="geometry" />
        </mxCell>
        <mxCell id="Xwmn6Notebn2Lym-PZ0T-24" value="Оставить&lt;br&gt;пожелания&lt;br&gt;на сайте" style="ellipse;whiteSpace=wrap;html=1;fillColor=#f8cecc;strokeColor=#b85450;" vertex="1" parent="1">
          <mxGeometry x="450" y="440" width="140" height="70" as="geometry" />
        </mxCell>
        <mxCell id="Xwmn6Notebn2Lym-PZ0T-30" value="Реализация&lt;br&gt;тура" style="ellipse;whiteSpace=wrap;html=1;fillColor=#dae8fc;strokeColor=#6c8ebf;gradientColor=none;" vertex="1" parent="1">
          <mxGeometry x="450" y="55" width="140" height="70" as="geometry" />
        </mxCell>
        <mxCell id="Xwmn6Notebn2Lym-PZ0T-31" value="Оформление&lt;br&gt;договора" style="ellipse;whiteSpace=wrap;html=1;fillColor=#dae8fc;strokeColor=#6c8ebf;" vertex="1" parent="1">
          <mxGeometry x="625" y="190" width="140" height="70" as="geometry" />
        </mxCell>
      </root>
    </mxGraphModel>
  </diagram>
</mxfile>
